<svg width="11" height="25" viewBox="0 0 11 25" fill="none" xmlns="http://www.w3.org/2000/svg">
<path d="M9.40904 6.9091V9.18183H-5.54323e-05V6.9091H9.40904ZM2.81813 24.3636V4.50001C2.81813 3.50001 3.05297 2.66668 3.52267 2.00001C3.99237 1.33334 4.60222 0.833343 5.35222 0.50001C6.10222 0.166676 6.89388 9.53674e-06 7.72722 9.53674e-06C8.38631 9.53674e-06 8.92419 0.0530402 9.34085 0.159101C9.75752 0.265162 10.0681 0.363646 10.2727 0.454556L9.49994 2.77274C9.36358 2.72728 9.17419 2.67046 8.93176 2.60228C8.69691 2.5341 8.38631 2.50001 7.99994 2.50001C7.11358 2.50001 6.47343 2.72349 6.07949 3.17047C5.69313 3.61743 5.49994 4.27274 5.49994 5.13637V24.3636H2.81813Z" fill="white"/>
</svg>
